<?xml version="1.0" encoding="utf-8"?>
<!-- Generator: Adobe Illustrator 28.3.0, SVG Export Plug-In . SVG Version: 6.00 Build 0)  -->
<svg version="1.1" id="Layer_1" xmlns="http://www.w3.org/2000/svg" xmlns:xlink="http://www.w3.org/1999/xlink" x="0px" y="0px"
	 viewBox="0 0 512 512" style="enable-background:new 0 0 512 512;" xml:space="preserve">
<style type="text/css">
	.st0{fill:#FFFFFF;}
	.st1{fill:#37D7FF;}
	.st2{fill:#3E3E3E;}
</style>
<g>
	<path class="st0" d="M383.99,18.29H54.85c-20.2,0-36.57,16.37-36.57,36.57v402.29c0,20.2,16.37,36.57,36.57,36.57h329.14
		c20.2,0,36.57-16.37,36.57-36.57V54.86C420.56,34.66,404.19,18.29,383.99,18.29z"/>
	<path class="st1" d="M383.99,493.71c20.2,0,36.57-16.37,36.57-36.57l0.99-72.85H19.26l-0.99,72.85c0,20.2,16.37,36.57,36.57,36.57
		H383.99z"/>
	<path class="st2" d="M292.56,0H54.85C24.54,0.01,0,24.55-0.01,54.86h0v402.29C0,487.45,24.54,511.99,54.85,512l0,0h329.14l0,0
		c30.3-0.01,54.85-24.55,54.86-54.86V292.57c0-10.1-8.19-18.29-18.29-18.29c-10.1,0-18.29,8.19-18.29,18.29l0,164.57
		c-0.02,10.09-8.19,18.27-18.29,18.29H54.85c-10.09-0.02-18.27-8.19-18.29-18.29l0-402.29c0.02-10.09,8.19-18.27,18.29-18.29h237.71
		c10.1,0,18.29-8.19,18.29-18.29C310.85,8.19,302.66,0,292.56,0L292.56,0z"/>
	<path class="st2" d="M18.27,402.29h402.29c10.1,0,18.29-8.19,18.29-18.29c0-10.1-8.19-18.29-18.29-18.29H18.27
		c-10.1,0-18.29,8.19-18.29,18.29C-0.01,394.1,8.18,402.29,18.27,402.29"/>
	<path class="st2" d="M127.99,128h73.14c10.1,0,18.29-8.19,18.29-18.29c0-10.1-8.19-18.29-18.29-18.29h-73.14
		c-10.1,0-18.29,8.19-18.29,18.29C109.7,119.81,117.89,128,127.99,128"/>
	<path class="st2" d="M127.99,219.43h36.57c10.1,0,18.29-8.19,18.29-18.29c0-10.1-8.19-18.29-18.29-18.29h-36.57
		c-10.1,0-18.29,8.19-18.29,18.29C109.7,211.24,117.89,219.43,127.99,219.43"/>
	<path class="st1" d="M328.91,274.51L219.2,294.25l18.29-111.18l154.7-153.97c14.22-14.34,37.38-14.44,51.72-0.21l0.21,0.21
		l38.77,38.77c14.34,14.17,14.48,37.27,0.32,51.62l-0.32,0.32L328.91,274.51z"/>
	<path class="st2" d="M328.91,274.51l-3.24-18l-84.23,15.16l13.12-79.8l150.51-149.8l0.08-0.08c3.62-3.64,8.22-5.39,12.98-5.41
		c4.72,0.02,9.26,1.73,12.88,5.3l-0.05-0.05l0.21,0.21l38.77,38.77l0.08,0.08c3.64,3.61,5.39,8.2,5.41,12.96
		c-0.02,4.68-1.72,9.2-5.26,12.8l0.08-0.08l-0.32,0.32l-0.03,0.03l-153.97,154.7L328.91,274.51l-3.24-18L328.91,274.51l12.96,12.9
		l153.97-154.7l-0.03,0.03l0.32-0.32l0.08-0.08c10.51-10.63,15.83-24.65,15.81-38.5c0.02-14.07-5.47-28.31-16.28-38.98l0.08,0.08
		l-38.77-38.77l-0.21-0.21l-0.05-0.05C446.13,5.34,432.05-0.01,418.15,0.01c-14.05-0.02-28.27,5.45-38.95,16.23l0.08-0.08
		l-154.7,153.97c-2.71,2.7-4.52,6.22-5.14,9.99l-18.29,111.18c-0.96,5.85,0.99,11.83,5.21,15.99c4.22,4.16,10.24,6.02,16.07,4.97
		l109.71-19.75c3.68-0.66,7.08-2.45,9.72-5.1L328.91,274.51z"/>
</g>
</svg>
